<svg width="1280" height="720" viewBox="0 0 1280 720" fill="none" xmlns="http://www.w3.org/2000/svg">
  <rect width="1280" height="720" fill="#0B1220"/>
  <rect x="0" y="0" width="1280" height="64" fill="#111827"/>
  <text x="28" y="40" fill="#F9FAFB" font-family="Inter, Arial, sans-serif" font-size="24" font-weight="700">Parallel App</text>
  <text x="1110" y="40" fill="#D1D5DB" font-family="Inter, Arial, sans-serif" font-size="14">john.doe@example.com</text>

  <rect x="24" y="88" width="240" height="608" rx="14" fill="#111827" stroke="#1F2937"/>
  <text x="44" y="124" fill="#9CA3AF" font-family="Inter, Arial, sans-serif" font-size="12" letter-spacing="0.08em">NAVIGATION</text>
  <rect x="40" y="142" width="208" height="42" rx="10" fill="#2563EB"/>
  <text x="58" y="168" fill="white" font-family="Inter, Arial, sans-serif" font-size="15" font-weight="600">Dashboard</text>
  <text x="58" y="214" fill="#D1D5DB" font-family="Inter, Arial, sans-serif" font-size="15">Tasks</text>
  <text x="58" y="252" fill="#D1D5DB" font-family="Inter, Arial, sans-serif" font-size="15">Projects</text>
  <text x="58" y="290" fill="#D1D5DB" font-family="Inter, Arial, sans-serif" font-size="15">Team</text>
  <text x="58" y="328" fill="#D1D5DB" font-family="Inter, Arial, sans-serif" font-size="15">Settings</text>

  <rect x="288" y="88" width="968" height="608" rx="14" fill="#0F172A" stroke="#1F2937"/>
  <text x="320" y="132" fill="#F9FAFB" font-family="Inter, Arial, sans-serif" font-size="28" font-weight="700">Dashboard</text>
  <text x="320" y="158" fill="#9CA3AF" font-family="Inter, Arial, sans-serif" font-size="14">Welcome back — here is your latest activity.</text>

  <rect x="320" y="184" width="210" height="100" rx="12" fill="#111827" stroke="#334155"/>
  <text x="338" y="214" fill="#9CA3AF" font-family="Inter, Arial, sans-serif" font-size="13">Total Tasks</text>
  <text x="338" y="255" fill="#F9FAFB" font-family="Inter, Arial, sans-serif" font-size="34" font-weight="700">42</text>

  <rect x="546" y="184" width="210" height="100" rx="12" fill="#111827" stroke="#334155"/>
  <text x="564" y="214" fill="#9CA3AF" font-family="Inter, Arial, sans-serif" font-size="13">Completed</text>
  <text x="564" y="255" fill="#10B981" font-family="Inter, Arial, sans-serif" font-size="34" font-weight="700">31</text>

  <rect x="772" y="184" width="210" height="100" rx="12" fill="#111827" stroke="#334155"/>
  <text x="790" y="214" fill="#9CA3AF" font-family="Inter, Arial, sans-serif" font-size="13">In Progress</text>
  <text x="790" y="255" fill="#F59E0B" font-family="Inter, Arial, sans-serif" font-size="34" font-weight="700">8</text>

  <rect x="998" y="184" width="226" height="100" rx="12" fill="#111827" stroke="#334155"/>
  <text x="1016" y="214" fill="#9CA3AF" font-family="Inter, Arial, sans-serif" font-size="13">Overdue</text>
  <text x="1016" y="255" fill="#EF4444" font-family="Inter, Arial, sans-serif" font-size="34" font-weight="700">3</text>

  <rect x="320" y="308" width="904" height="356" rx="12" fill="#111827" stroke="#334155"/>
  <text x="344" y="340" fill="#F9FAFB" font-family="Inter, Arial, sans-serif" font-size="18" font-weight="600">Recent Tasks</text>

  <rect x="344" y="360" width="856" height="44" rx="8" fill="#1F2937"/>
  <text x="362" y="387" fill="#D1D5DB" font-family="Inter, Arial, sans-serif" font-size="13" font-weight="600">Task</text>
  <text x="700" y="387" fill="#D1D5DB" font-family="Inter, Arial, sans-serif" font-size="13" font-weight="600">Assignee</text>
  <text x="910" y="387" fill="#D1D5DB" font-family="Inter, Arial, sans-serif" font-size="13" font-weight="600">Status</text>
  <text x="1080" y="387" fill="#D1D5DB" font-family="Inter, Arial, sans-serif" font-size="13" font-weight="600">Due</text>

  <rect x="344" y="414" width="856" height="52" rx="8" fill="#0F172A"/>
  <text x="362" y="445" fill="#F3F4F6" font-family="Inter, Arial, sans-serif" font-size="14">Design onboarding flow</text>
  <text x="700" y="445" fill="#E5E7EB" font-family="Inter, Arial, sans-serif" font-size="14">Mia</text>
  <rect x="904" y="427" width="90" height="26" rx="13" fill="#064E3B"/>
  <text x="923" y="444" fill="#6EE7B7" font-family="Inter, Arial, sans-serif" font-size="12">Done</text>
  <text x="1080" y="445" fill="#E5E7EB" font-family="Inter, Arial, sans-serif" font-size="14">Mar 17</text>

  <rect x="344" y="472" width="856" height="52" rx="8" fill="#0F172A"/>
  <text x="362" y="503" fill="#F3F4F6" font-family="Inter, Arial, sans-serif" font-size="14">Sync GraphQL mutations</text>
  <text x="700" y="503" fill="#E5E7EB" font-family="Inter, Arial, sans-serif" font-size="14">Arun</text>
  <rect x="904" y="485" width="90" height="26" rx="13" fill="#78350F"/>
  <text x="916" y="502" fill="#FCD34D" font-family="Inter, Arial, sans-serif" font-size="12">In Progress</text>
  <text x="1080" y="503" fill="#E5E7EB" font-family="Inter, Arial, sans-serif" font-size="14">Mar 18</text>

  <rect x="344" y="530" width="856" height="52" rx="8" fill="#0F172A"/>
  <text x="362" y="561" fill="#F3F4F6" font-family="Inter, Arial, sans-serif" font-size="14">Finalize release checklist</text>
  <text x="700" y="561" fill="#E5E7EB" font-family="Inter, Arial, sans-serif" font-size="14">Nora</text>
  <rect x="904" y="543" width="90" height="26" rx="13" fill="#7F1D1D"/>
  <text x="923" y="560" fill="#FCA5A5" font-family="Inter, Arial, sans-serif" font-size="12">Blocked</text>
  <text x="1080" y="561" fill="#E5E7EB" font-family="Inter, Arial, sans-serif" font-size="14">Mar 16</text>

  <rect x="344" y="588" width="856" height="52" rx="8" fill="#0F172A"/>
  <text x="362" y="619" fill="#F3F4F6" font-family="Inter, Arial, sans-serif" font-size="14">Prepare sprint demo</text>
  <text x="700" y="619" fill="#E5E7EB" font-family="Inter, Arial, sans-serif" font-size="14">Liam</text>
  <rect x="904" y="601" width="90" height="26" rx="13" fill="#1E3A8A"/>
  <text x="923" y="618" fill="#93C5FD" font-family="Inter, Arial, sans-serif" font-size="12">Review</text>
  <text x="1080" y="619" fill="#E5E7EB" font-family="Inter, Arial, sans-serif" font-size="14">Mar 19</text>
</svg>
