<svg width="1280" height="720" viewBox="0 0 1280 720" fill="none" xmlns="http://www.w3.org/2000/svg">
  <rect width="1280" height="720" fill="#0F172A"/>
  <rect x="24" y="24" width="1232" height="672" rx="20" stroke="#334155" stroke-width="2"/>
  <rect x="60" y="88" width="240" height="580" rx="14" fill="#111827" stroke="#374151"/>
  <rect x="80" y="120" width="200" height="32" rx="8" fill="#1F2937"/>
  <rect x="80" y="168" width="200" height="32" rx="8" fill="#1F2937"/>
  <rect x="80" y="216" width="200" height="32" rx="8" fill="#1F2937"/>
  <rect x="80" y="264" width="200" height="32" rx="8" fill="#1F2937"/>
  <rect x="80" y="312" width="200" height="32" rx="8" fill="#1F2937"/>
  <rect x="340" y="96" width="280" height="112" rx="12" fill="#1F2937" stroke="#4B5563"/>
  <rect x="640" y="96" width="280" height="112" rx="12" fill="#1F2937" stroke="#4B5563"/>
  <rect x="940" y="96" width="280" height="112" rx="12" fill="#1F2937" stroke="#4B5563"/>
  <rect x="340" y="238" width="880" height="430" rx="14" fill="#111827" stroke="#374151"/>
  <line x1="360" y1="290" x2="1200" y2="290" stroke="#374151"/>
  <line x1="360" y1="345" x2="1200" y2="345" stroke="#374151"/>
  <line x1="360" y1="400" x2="1200" y2="400" stroke="#374151"/>
  <line x1="360" y1="455" x2="1200" y2="455" stroke="#374151"/>
  <line x1="360" y1="510" x2="1200" y2="510" stroke="#374151"/>
  <line x1="360" y1="565" x2="1200" y2="565" stroke="#374151"/>
  <line x1="540" y1="258" x2="540" y2="648" stroke="#374151"/>
  <line x1="760" y1="258" x2="760" y2="648" stroke="#374151"/>
  <line x1="980" y1="258" x2="980" y2="648" stroke="#374151"/>
  <rect x="0" y="0" width="1280" height="56" fill="#020617"/>
  <text x="24" y="35" fill="#E2E8F0" font-family="Arial, sans-serif" font-size="24" font-weight="600">Parallel App Dashboard</text>
</svg>
